<svg xmlns="http://www.w3.org/2000/svg" width="148" height="40" fill="none" viewBox="0 0 148 40">
    <path fill="#1928AA" fill-rule="evenodd" d="M47.25 5.75c4.033-.733 8.2.017 11.733 2.117 3.35 1.983 5.917 5.083 7.267 8.766C68.217 22 67.45 28.45 64.283 33.05 62.133 36.2 57.9 40 50 40H26.417c-5.684 0-10.184-.15-13.684-.85-5.1-1.05-8.516-3.4-10.7-7.6-2.183-4.2-1.55-9.117.6-12.817 1.934-3.15 5.1-5.167 8.917-5.7.283-.066.583-.083.9-.1.3-.983.667-1.933 1.117-2.85C16.367 4.167 21.233.6 27.283.067c6.017-.534 12.334 2.2 15.934 6.883 1.3-.55 2.65-.95 4.033-1.2zM12.1 17.116c-3.317.467-5.1 2.317-6 3.8-1.367 2.317-1.7 5.134-.883 7.7.966 2.517 2.85 4 5.466 4.284 5.434.617 11.3-3.75 14.85-8.5-4.55-4.067-9.283-7.867-13.433-7.284zM27.633 4.2c4.367-.4 9.05 1.483 11.884 4.717-3.984 2.583-7.9 6.616-11.65 12.066-4.117-3.666-7.684-6.35-11.3-7.483.2-.55.416-1.084.666-1.617 2.167-4.55 5.85-7.283 10.4-7.683zm2.05 21.433c-2.533 3.75-5.7 6.8-9.15 8.817-.766.45-1.566.85-2.383 1.216 3.55.234 8.033.217 13.917.167 6.016-.05 17.883 0 17.95 0 4.85 0 8.616-1.783 10.933-5.133 2.383-3.483 2.983-8.55 1.483-12.617-1.033-2.783-2.983-5.133-5.5-6.633-2.7-1.6-5.883-2.183-8.966-1.6-5.767.983-12.234 6.183-18.284 15.783zm63.85.15v8.084c0 .9-.483 1.75-1.266 2.2-.784.45-1.75.45-2.534 0-.783-.45-1.266-1.3-1.266-2.2v-8.084c0-3.033-2.217-5.466-4.9-5.466-3.317 0-5.034 3.333-5.034 6.283v7.267c0 1.416-1.15 2.566-2.55 2.566s-2.55-1.15-2.55-2.566V17.55c0-1.417 1.15-2.567 2.55-2.567 1.084 0 2.05.717 2.384 1.75 1.55-1 3.35-1.533 5.2-1.533 5.483-.017 9.966 4.733 9.966 10.583zm22.167.117v-7.817c.017-.666-.233-1.3-.683-1.783-.45-.484-1.084-.767-1.75-.767-1.15 0-2.65 1.117-2.65 2.567v7.816c0 3.084-2.167 5.55-5.067 5.55-2.467 0-5.033-2.483-5.033-5.55V17.75c0-1.417-1.317-2.567-2.684-2.567-1.316 0-2.383 1.15-2.383 2.567v8.166c0 5.9 4.567 10.717 10.1 10.717 5.6 0 10.15-4.833 10.15-10.733zm13.633-11.067c-2.133.017-4.216.633-6.016 1.8v-10c0-1.433-1.15-2.583-2.584-2.583-1.416 0-2.583 1.15-2.583 2.583V33.8c0 .683.283 1.35.767 1.817.483.483 1.15.75 1.833.733 1.117 0 2.117-.733 2.467-1.8 1.8 1.233 3.916 1.9 6.1 1.883 5.95 0 10.783-4.833 10.783-10.817.017-5.933-4.817-10.783-10.767-10.783zm-5.2 12.984c.867 2.1 2.917 3.483 5.2 3.483 1.5 0 2.917-.6 3.984-1.65 1.05-1.05 1.65-2.5 1.65-3.983 0-2.284-1.367-4.334-3.467-5.217-2.1-.867-4.517-.383-6.133 1.216-1.617 1.617-2.1 4.034-1.234 6.15zm23.2-19.217v.217c0 1.466-1.183 2.65-2.65 2.65-1.466 0-2.65-1.184-2.65-2.65V8.6c0-1.467 1.184-2.65 2.65-2.65 1.467 0 2.65 1.183 2.65 2.65zm0 25.25v-16.5c0-1.467-1.183-2.65-2.65-2.65-1.466 0-2.65 1.183-2.65 2.65v16.5c0 1.466 1.184 2.65 2.65 2.65 1.467 0 2.65-1.184 2.65-2.65z" clip-rule="evenodd"/>
</svg>
